<mxfile host="app.diagrams.net" modified="2020-10-22T09:20:42.070Z" agent="5.0 (Windows NT 10.0; Win64; x64) AppleWebKit/537.36 (KHTML, like Gecko) Chrome/86.0.4240.75 Safari/537.36" etag="BEKYFiMo-hiDMefX6d5a" version="13.8.1" type="github">
  <diagram id="p1-o60XN3pzjEzgT1OOZ" name="第 1 页">
    <mxGraphModel dx="2875" dy="780" grid="1" gridSize="10" guides="1" tooltips="1" connect="1" arrows="1" fold="1" page="1" pageScale="1" pageWidth="827" pageHeight="1169" math="0" shadow="0">
      <root>
        <mxCell id="0" />
        <mxCell id="1" parent="0" />
        <mxCell id="T4DYZ1FT2uXp3QGceV7x-27" value="" style="rounded=0;whiteSpace=wrap;html=1;" vertex="1" parent="1">
          <mxGeometry x="-450" y="800" width="470" height="140" as="geometry" />
        </mxCell>
        <mxCell id="T4DYZ1FT2uXp3QGceV7x-4" value="" style="rounded=0;whiteSpace=wrap;html=1;" vertex="1" parent="1">
          <mxGeometry x="74" y="60" width="340" height="140" as="geometry" />
        </mxCell>
        <mxCell id="T4DYZ1FT2uXp3QGceV7x-1" value="&lt;font face=&quot;Comic Sans MS&quot; style=&quot;font-size: 14px&quot;&gt;&lt;b&gt;kube-api-server&lt;/b&gt;&lt;/font&gt;" style="rounded=1;whiteSpace=wrap;html=1;" vertex="1" parent="1">
          <mxGeometry x="170" y="100" width="160" height="60" as="geometry" />
        </mxCell>
        <mxCell id="T4DYZ1FT2uXp3QGceV7x-3" value="&lt;font face=&quot;Comic Sans MS&quot;&gt;&lt;b&gt;Master&lt;/b&gt;&lt;/font&gt;" style="text;html=1;resizable=0;autosize=1;align=center;verticalAlign=middle;points=[];fillColor=none;strokeColor=none;rounded=0;" vertex="1" parent="1">
          <mxGeometry x="354" y="170" width="60" height="20" as="geometry" />
        </mxCell>
        <mxCell id="T4DYZ1FT2uXp3QGceV7x-6" style="edgeStyle=orthogonalEdgeStyle;rounded=0;orthogonalLoop=1;jettySize=auto;html=1;exitX=0.005;exitY=0.63;exitDx=0;exitDy=0;exitPerimeter=0;" edge="1" parent="1" source="T4DYZ1FT2uXp3QGceV7x-5" target="T4DYZ1FT2uXp3QGceV7x-1">
          <mxGeometry relative="1" as="geometry" />
        </mxCell>
        <mxCell id="T4DYZ1FT2uXp3QGceV7x-5" value="" style="html=1;dashed=0;whitespace=wrap;fillColor=#2875E2;strokeColor=#ffffff;points=[[0.005,0.63,0],[0.1,0.2,0],[0.9,0.2,0],[0.5,0,0],[0.995,0.63,0],[0.72,0.99,0],[0.5,1,0],[0.28,0.99,0]];shape=mxgraph.kubernetes.icon;prIcon=user;rounded=1;" vertex="1" parent="1">
          <mxGeometry x="710" y="100" width="50" height="48" as="geometry" />
        </mxCell>
        <mxCell id="T4DYZ1FT2uXp3QGceV7x-7" value="&lt;font face=&quot;Comic Sans MS&quot;&gt;&lt;b&gt;Pod&lt;/b&gt;&lt;/font&gt;" style="text;html=1;resizable=0;autosize=1;align=center;verticalAlign=middle;points=[];fillColor=none;strokeColor=none;rounded=0;" vertex="1" parent="1">
          <mxGeometry x="540" y="100" width="40" height="20" as="geometry" />
        </mxCell>
        <mxCell id="T4DYZ1FT2uXp3QGceV7x-19" style="edgeStyle=none;rounded=0;orthogonalLoop=1;jettySize=auto;html=1;exitX=0.5;exitY=1;exitDx=0;exitDy=0;entryX=0.5;entryY=0;entryDx=0;entryDy=0;" edge="1" parent="1" source="T4DYZ1FT2uXp3QGceV7x-9" target="T4DYZ1FT2uXp3QGceV7x-10">
          <mxGeometry relative="1" as="geometry" />
        </mxCell>
        <mxCell id="T4DYZ1FT2uXp3QGceV7x-20" style="edgeStyle=none;rounded=0;orthogonalLoop=1;jettySize=auto;html=1;exitX=0.5;exitY=1;exitDx=0;exitDy=0;entryX=0.5;entryY=0;entryDx=0;entryDy=0;" edge="1" parent="1" source="T4DYZ1FT2uXp3QGceV7x-9" target="T4DYZ1FT2uXp3QGceV7x-11">
          <mxGeometry relative="1" as="geometry" />
        </mxCell>
        <mxCell id="T4DYZ1FT2uXp3QGceV7x-9" value="&lt;font face=&quot;Comic Sans MS&quot; style=&quot;font-size: 14px&quot;&gt;&lt;b&gt;Kubelet&lt;/b&gt;&lt;/font&gt;" style="rounded=1;whiteSpace=wrap;html=1;" vertex="1" parent="1">
          <mxGeometry x="280" y="300" width="160" height="60" as="geometry" />
        </mxCell>
        <mxCell id="T4DYZ1FT2uXp3QGceV7x-17" style="rounded=0;orthogonalLoop=1;jettySize=auto;html=1;exitX=0.5;exitY=1;exitDx=0;exitDy=0;" edge="1" parent="1" source="T4DYZ1FT2uXp3QGceV7x-10" target="T4DYZ1FT2uXp3QGceV7x-14">
          <mxGeometry relative="1" as="geometry" />
        </mxCell>
        <mxCell id="T4DYZ1FT2uXp3QGceV7x-18" style="edgeStyle=none;rounded=0;orthogonalLoop=1;jettySize=auto;html=1;exitX=0.5;exitY=1;exitDx=0;exitDy=0;entryX=0.55;entryY=0.017;entryDx=0;entryDy=0;entryPerimeter=0;" edge="1" parent="1" source="T4DYZ1FT2uXp3QGceV7x-10" target="T4DYZ1FT2uXp3QGceV7x-16">
          <mxGeometry relative="1" as="geometry" />
        </mxCell>
        <mxCell id="T4DYZ1FT2uXp3QGceV7x-10" value="&lt;font face=&quot;Comic Sans MS&quot; style=&quot;font-size: 14px&quot;&gt;&lt;b&gt;CRI&lt;/b&gt;&lt;/font&gt;" style="rounded=1;whiteSpace=wrap;html=1;" vertex="1" parent="1">
          <mxGeometry x="50" y="460" width="160" height="60" as="geometry" />
        </mxCell>
        <mxCell id="T4DYZ1FT2uXp3QGceV7x-21" style="edgeStyle=none;rounded=0;orthogonalLoop=1;jettySize=auto;html=1;exitX=0.5;exitY=1;exitDx=0;exitDy=0;entryX=0.5;entryY=0;entryDx=0;entryDy=0;" edge="1" parent="1" source="T4DYZ1FT2uXp3QGceV7x-11" target="T4DYZ1FT2uXp3QGceV7x-12">
          <mxGeometry relative="1" as="geometry" />
        </mxCell>
        <mxCell id="T4DYZ1FT2uXp3QGceV7x-22" style="edgeStyle=none;rounded=0;orthogonalLoop=1;jettySize=auto;html=1;exitX=0.5;exitY=1;exitDx=0;exitDy=0;entryX=0.5;entryY=0;entryDx=0;entryDy=0;" edge="1" parent="1" source="T4DYZ1FT2uXp3QGceV7x-11" target="T4DYZ1FT2uXp3QGceV7x-13">
          <mxGeometry relative="1" as="geometry" />
        </mxCell>
        <mxCell id="T4DYZ1FT2uXp3QGceV7x-11" value="&lt;font face=&quot;Comic Sans MS&quot; style=&quot;font-size: 14px&quot;&gt;&lt;b&gt;Network Driver&lt;/b&gt;&lt;/font&gt;" style="rounded=1;whiteSpace=wrap;html=1;dashed=1;" vertex="1" parent="1">
          <mxGeometry x="490" y="440" width="160" height="60" as="geometry" />
        </mxCell>
        <mxCell id="T4DYZ1FT2uXp3QGceV7x-12" value="&lt;font face=&quot;Comic Sans MS&quot; style=&quot;font-size: 14px&quot;&gt;&lt;b&gt;kebenet&lt;/b&gt;&lt;/font&gt;" style="rounded=1;whiteSpace=wrap;html=1;" vertex="1" parent="1">
          <mxGeometry x="390" y="550" width="160" height="60" as="geometry" />
        </mxCell>
        <mxCell id="T4DYZ1FT2uXp3QGceV7x-13" value="&lt;font face=&quot;Comic Sans MS&quot; style=&quot;font-size: 14px&quot;&gt;&lt;b&gt;CNI&lt;/b&gt;&lt;/font&gt;" style="rounded=1;whiteSpace=wrap;html=1;" vertex="1" parent="1">
          <mxGeometry x="610" y="530" width="160" height="60" as="geometry" />
        </mxCell>
        <mxCell id="T4DYZ1FT2uXp3QGceV7x-35" style="edgeStyle=none;rounded=0;orthogonalLoop=1;jettySize=auto;html=1;exitX=0.5;exitY=1;exitDx=0;exitDy=0;entryX=0.5;entryY=0;entryDx=0;entryDy=0;" edge="1" parent="1" source="T4DYZ1FT2uXp3QGceV7x-14" target="T4DYZ1FT2uXp3QGceV7x-24">
          <mxGeometry relative="1" as="geometry" />
        </mxCell>
        <mxCell id="T4DYZ1FT2uXp3QGceV7x-14" value="&lt;font face=&quot;Comic Sans MS&quot; style=&quot;font-size: 14px&quot;&gt;&lt;b&gt;dockershim&lt;/b&gt;&lt;/font&gt;" style="rounded=1;whiteSpace=wrap;html=1;" vertex="1" parent="1">
          <mxGeometry x="-120" y="620" width="160" height="60" as="geometry" />
        </mxCell>
        <mxCell id="T4DYZ1FT2uXp3QGceV7x-16" value="&lt;font face=&quot;Comic Sans MS&quot; style=&quot;font-size: 14px&quot;&gt;&lt;b&gt;containerd&lt;/b&gt;&lt;/font&gt;" style="rounded=1;whiteSpace=wrap;html=1;" vertex="1" parent="1">
          <mxGeometry x="180" y="620" width="160" height="60" as="geometry" />
        </mxCell>
        <mxCell id="T4DYZ1FT2uXp3QGceV7x-24" value="&lt;font face=&quot;Comic Sans MS&quot; style=&quot;font-size: 14px&quot;&gt;&lt;b&gt;pause&lt;/b&gt;&lt;/font&gt;" style="rounded=1;whiteSpace=wrap;html=1;" vertex="1" parent="1">
          <mxGeometry x="-120" y="840" width="120" height="60" as="geometry" />
        </mxCell>
        <mxCell id="T4DYZ1FT2uXp3QGceV7x-29" style="edgeStyle=none;rounded=0;orthogonalLoop=1;jettySize=auto;html=1;exitX=1;exitY=0.5;exitDx=0;exitDy=0;entryX=0;entryY=0.5;entryDx=0;entryDy=0;" edge="1" parent="1" source="T4DYZ1FT2uXp3QGceV7x-25" target="T4DYZ1FT2uXp3QGceV7x-24">
          <mxGeometry relative="1" as="geometry" />
        </mxCell>
        <mxCell id="T4DYZ1FT2uXp3QGceV7x-25" value="&lt;font face=&quot;Comic Sans MS&quot; style=&quot;font-size: 14px&quot;&gt;&lt;b&gt;container&lt;/b&gt;&lt;/font&gt;" style="rounded=1;whiteSpace=wrap;html=1;" vertex="1" parent="1">
          <mxGeometry x="-390" y="845" width="140" height="50" as="geometry" />
        </mxCell>
        <mxCell id="T4DYZ1FT2uXp3QGceV7x-31" value="&lt;font face=&quot;Comic Sans MS&quot;&gt;&lt;b&gt;eth0&lt;/b&gt;&lt;/font&gt;" style="rounded=0;whiteSpace=wrap;html=1;fillColor=#dae8fc;strokeColor=#6c8ebf;" vertex="1" parent="1">
          <mxGeometry x="-30" y="855" width="30" height="30" as="geometry" />
        </mxCell>
        <mxCell id="T4DYZ1FT2uXp3QGceV7x-33" style="edgeStyle=none;rounded=0;orthogonalLoop=1;jettySize=auto;html=1;exitX=1;exitY=0;exitDx=0;exitDy=0;" edge="1" parent="1" source="T4DYZ1FT2uXp3QGceV7x-27" target="T4DYZ1FT2uXp3QGceV7x-27">
          <mxGeometry relative="1" as="geometry" />
        </mxCell>
        <mxCell id="T4DYZ1FT2uXp3QGceV7x-36" value="&lt;font face=&quot;Comic Sans MS&quot;&gt;&lt;b&gt;Pod&lt;/b&gt;&lt;/font&gt;" style="text;html=1;resizable=0;autosize=1;align=center;verticalAlign=middle;points=[];fillColor=none;strokeColor=none;rounded=0;" vertex="1" parent="1">
          <mxGeometry x="-433" y="810" width="40" height="20" as="geometry" />
        </mxCell>
        <mxCell id="T4DYZ1FT2uXp3QGceV7x-37" value="&lt;font face=&quot;Comic Sans MS&quot;&gt;&lt;b&gt;join pause&lt;br&gt;network namespace&lt;/b&gt;&lt;/font&gt;" style="text;html=1;resizable=0;autosize=1;align=center;verticalAlign=middle;points=[];fillColor=none;strokeColor=none;rounded=0;" vertex="1" parent="1">
          <mxGeometry x="-255" y="830" width="130" height="40" as="geometry" />
        </mxCell>
      </root>
    </mxGraphModel>
  </diagram>
</mxfile>
